inDegrees=yes
name=ik_S41_A11_T02
DataType=double
version=3
OpenSimVersion=4.3-2021-08-27-4bc7ad9
endheader
time	pelvis_tilt	pelvis_list	pelvis_rotation	pelvis_tx	pelvis_ty	pelvis_tz	hip_flexion_r	hip_adduction_r	hip_rotation_r	knee_angle_r	knee_angle_r_beta	ankle_angle_r	subtalar_angle_r	mtp_angle_r	hip_flexion_l	hip_adduction_l	hip_rotation_l	knee_angle_l	knee_angle_l_beta	ankle_angle_l	subtalar_angle_l	mtp_angle_l	lumbar_extension	lumbar_bending	lumbar_rotation	arm_flex_r	arm_add_r	arm_rot_r	elbow_flex_r	pro_sup_r	wrist_flex_r	wrist_dev_r	arm_flex_l	arm_add_l	arm_rot_l	elbow_flex_l	pro_sup_l	wrist_flex_l	wrist_dev_l
7.239999999999934	0.7915984651537897	-3.167285982299991	18.63144438236665	0	0.9399999999999999	0	37.68790241068646	-9.864287646216443	-9.570889788698622	44.48263426933664	0.7763684279603865	0	0	0	37.68790241068646	-9.864287646216443	-9.570889788698622	44.48263426933664	0.7763684279603865	0	0	0	0.4997977926797446	-2.923757386096015	8.518939541607171	98.75437031118389	-51.25337183657144	20.56977719182011	31.93556542963347	78.38979448052939	0	0	11.26604621544985	-4.790545603590467	-5.402323080269879	6.596748082247704	123.4572864701001	0	0
7.259999999999933	0.8117526059641089	-3.195804432279478	18.78391233614714	0	0.9399999999999999	0	37.76123715777612	-9.867580340801881	-9.578550198989777	44.57432337792867	0.7779687047935361	0	0	0	37.76123715777612	-9.867580340801881	-9.578550198989777	44.57432337792867	0.7779687047935361	0	0	0	0.5043266634580408	-2.955867486453493	8.361425696654088	102.7003244000705	-50.30357665760116	24.15756561500864	33.91898173913303	78.73657058143957	0	0	11.28593196271581	-4.798488302285752	-5.489892420597257	6.578071031296309	123.4324014587436	0	0
7.279999999999933	0.8332456206805458	-3.264132512773131	18.97615374500847	0	0.9399999999999999	0	37.76875349891865	-9.868056834309096	-9.5795227400874	44.58167694884211	0.7780970488177544	0	0	0	37.76875349891865	-9.868056834309096	-9.5795227400874	44.58167694884211	0.7780970488177544	0	0	0	0.5004409749757471	-3.022608967360573	8.230207754117117	106.1126528188042	-49.25436865439749	27.14722624759658	33.33254345408205	78.91176780655778	0	0	11.36626648970194	-4.848038656580948	-5.452003755565496	6.512509454173591	123.4161912266905	0	0
7.299999999999932	0.8485186024220936	-3.326256762128718	19.13229368773634	0	0.9399999999999999	0	37.77613944758513	-9.868523907537027	-9.580477256296049	44.5889049494632	0.7782232012269287	0	0	0	37.77613944758513	-9.868523907537027	-9.580477256296049	44.5889049494632	0.7782232012269287	0	0	0	0.4889963987276968	-3.081974916865539	8.077811884634338	109.2257109358798	-48.02907101301058	29.64745583079766	32.62131647875585	79.28406625050087	0	0	11.46280846944001	-4.875668607003685	-5.470043877444565	6.487254753903924	123.3778900995871	0	0
7.319999999999932	0.8832805776670584	-3.364909747319468	19.23745406994733	0	0.9399999999999999	0	37.80872949198876	-9.869999019166643	-9.583899061879064	44.62920834309483	0.7789266281455279	0	0	0	37.80872949198876	-9.869999019166643	-9.583899061879064	44.62920834309483	0.7789266281455279	0	0	0	0.4799584262477629	-3.140530043456266	7.987037806469139	114.4455566689367	-45.2897636752695	33.54752856749128	28.78739299100257	79.22366179223526	0	0	11.52179294102584	-4.864722758119943	-5.455990316899387	6.490155830701074	123.2721035554705	0	0
7.339999999999931	0.8723723876937183	-3.411177109466678	19.29124273054094	0	0.9399999999999999	0	37.81104543986885	-9.870141868678271	-9.584193823034232	44.63151126414633	0.7789668217002901	0	0	0	37.81104543986885	-9.870141868678271	-9.584193823034232	44.63151126414633	0.7789668217002901	0	0	0	0.4541489592643042	-3.180775878765763	7.981385756314295	114.607560185238	-45.39121412465288	33.53039827185524	30.19042599133746	79.68865298648737	0	0	11.64990088993034	-4.833036667483259	-5.394686188184883	6.500513856788906	123.2152136700047	0	0
7.359999999999931	0.9125023549032901	-3.491971056167001	19.46989305177086	0	0.9399999999999999	0	37.81475515881242	-9.870373487504551	-9.584669831457505	44.63515629530553	0.779030439495356	0	0	0	37.81475515881242	-9.870373487504551	-9.584669831457505	44.63515629530553	0.779030439495356	0	0	0	0.4567001033447693	-3.270080065621452	7.842401040354789	116.5673676117468	-44.09133489942568	34.86022088389034	28.11062218664209	79.69630268933052	0	0	11.70297101481106	-4.941252047792277	-5.354241780412629	6.491699158683804	123.176341771003	0	0
7.379999999999931	0.9021935756824112	-3.509728889774514	19.62437401092864	0	0.9399999999999999	0	37.81971603540903	-9.870683170660524	-9.585306461914419	44.64002574843945	0.7791154274853144	0	0	0	37.81971603540903	-9.870683170660524	-9.585306461914419	44.64002574843945	0.7791154274853144	0	0	0	0.4329122234937982	-3.282415441689644	7.711375549479096	118.4993909090904	-42.80961127213509	36.2742363342178	26.23172370194676	79.51123934800749	0	0	11.80745858130318	-4.859684152020989	-5.300424554624896	6.495426610445179	123.1469408241677	0	0
7.39999999999993	0.9394725006641867	-3.568341672624588	19.78135331691485	0	0.9399999999999999	0	37.82290087132447	-9.870881410281466	-9.585714489045481	44.64315685288063	0.7791700755670368	0	0	0	37.82290087132447	-9.870881410281466	-9.585714489045481	44.64315685288063	0.7791700755670368	0	0	0	0.4415598992013327	-3.346624665845394	7.577326389583295	120.1356945895212	-41.69868839866277	37.32058244704876	28.08832626214108	80.08005578560693	0	0	11.84374386621634	-4.913422540195081	-5.227993839666528	6.505332210178416	123.0903553535601	0	0
7.41999999999993	0.9743566770013324	-3.610587799463051	19.88315024124447	0	0.9399999999999999	0	37.827240912512	-9.871151716408868	-9.5862708476843	44.64741704136247	0.7792444298828003	0	0	0	37.827240912512	-9.871151716408868	-9.5862708476843	44.64741704136247	0.7792444298828003	0	0	0	0.4556097843967044	-3.396270172252135	7.476074115145624	121.5467605365025	-40.53084270080208	38.48086460611542	27.45721205055816	79.9005424012493	0	0	11.85566820575355	-4.92042774467812	-5.131822587115914	6.508991126176868	122.981230173838	0	0
7.439999999999929	1.002139164940216	-3.663526580094698	19.97582473179201	0	0.9399999999999999	0	37.83119029503987	-9.871397239954408	-9.586776635796708	44.65129590244433	0.7793121287799064	0	0	0	37.83119029503987	-9.871397239954408	-9.586776635796708	44.65129590244433	0.7793121287799064	0	0	0	0.4601976044817631	-3.453849671825723	7.397076890370351	122.8392147479947	-39.4889336165723	39.57659490589495	26.89513540611376	79.67909070670939	0	0	11.90064916538725	-4.944089855492559	-5.029540975805812	6.513938233062071	122.863732502986	0	0
7.459999999999929	1.018877886293527	-3.733318970034631	20.13228251048776	0	0.9399999999999999	0	37.83507245787573	-9.871638348810411	-9.587273604080499	44.65510815549606	0.7793786651475783	0	0	0	37.83507245787573	-9.871638348810411	-9.587273604080499	44.65510815549606	0.7793786651475783	0	0	0	0.450062626383272	-3.524252967104065	7.357671424086599	124.0243433946993	-38.56924506093226	40.59504251971637	26.38206434371035	79.37736860624219	0	0	11.99244581088361	-4.965110869908366	-4.857574409385315	6.464232829953636	122.8199146092732	0	0
